<svg width="310" height="112" viewBox="0 0 310 112" fill="none" xmlns="http://www.w3.org/2000/svg">
<rect width="310" height="112" rx="8" fill="#F8F5FA"/>
<g clip-path="url(#clip0_965_462)">
<path d="M52.2916 50.7909C55.0467 50.7824 57.6906 51.8765 59.6339 53.8294L65.7111 59.9118C66.2445 60.4461 66.2445 61.3115 65.7111 61.8459L64.7103 62.8518L47.6819 79.9114L45.8463 81.7314C45.3593 82.2242 45.3593 83.0171 45.8463 83.5099L50.4768 88.1352C50.9678 88.6216 51.759 88.6216 52.2501 88.1352L78.695 61.6903C78.8968 61.4981 79.0298 61.2448 79.0735 60.9696C79.1201 60.5995 78.9939 60.2285 78.7313 59.9636L64.5703 45.7767C61.9625 43.1574 58.4144 41.6914 54.7183 41.7062H50.8397C49.833 41.7069 48.8674 42.1058 48.1537 42.8159L40.2358 50.7909H52.2916Z" fill="#1B1C89"/>
<path d="M35.4292 59.295L29.5387 53.3838C29.1921 53.0395 29.0172 52.5584 29.0617 52.0719C29.1098 51.6768 29.293 51.3104 29.5802 51.0348L30.3269 50.2726L49.3776 31.2323C49.6141 30.9968 49.7471 30.6768 49.7471 30.343C49.7471 30.0093 49.6141 29.6892 49.3776 29.4537L44.7368 24.8648C44.2457 24.3784 43.4545 24.3784 42.9634 24.8648L16.3837 51.4289C16.1831 51.6235 16.0519 51.8785 16.0104 52.1549C15.9613 52.5252 16.0879 52.8972 16.3526 53.1608L30.5239 67.3322C33.1307 69.953 36.6795 71.4192 40.376 71.4027H44.1975C45.2029 71.4027 46.1672 71.0037 46.8783 70.2929L54.8325 62.3387H42.7716C40.017 62.3395 37.3753 61.2444 35.4292 59.295Z" fill="#1B1C89"/>
</g>
<path d="M97.148 45V35.228H98.996V37.006H101.544C101.992 37.006 102.393 37.0807 102.748 37.23C103.112 37.3793 103.42 37.5893 103.672 37.86C103.924 38.1213 104.115 38.4387 104.246 38.812C104.377 39.176 104.442 39.582 104.442 40.03C104.442 40.478 104.377 40.8887 104.246 41.262C104.115 41.6353 103.924 41.9573 103.672 42.228C103.42 42.4893 103.112 42.6947 102.748 42.844C102.393 42.9933 101.992 43.068 101.544 43.068H98.996V45H97.148ZM98.996 41.444H101.376C101.731 41.444 102.011 41.3507 102.216 41.164C102.421 40.9773 102.524 40.7067 102.524 40.352V39.708C102.524 39.3533 102.421 39.0827 102.216 38.896C102.011 38.7093 101.731 38.616 101.376 38.616H98.996V41.444ZM106.005 37.692H107.797V45.882C107.797 46.498 107.643 46.9693 107.335 47.296C107.027 47.632 106.537 47.8 105.865 47.8H104.885V46.372H106.005V37.692ZM106.901 36.628C106.527 36.628 106.257 36.544 106.089 36.376C105.93 36.208 105.851 35.9933 105.851 35.732V35.452C105.851 35.1907 105.93 34.976 106.089 34.808C106.257 34.64 106.527 34.556 106.901 34.556C107.265 34.556 107.531 34.64 107.699 34.808C107.867 34.976 107.951 35.1907 107.951 35.452V35.732C107.951 35.9933 107.867 36.208 107.699 36.376C107.531 36.544 107.265 36.628 106.901 36.628ZM112.772 45.168C112.249 45.168 111.778 45.0793 111.358 44.902C110.947 44.7247 110.593 44.468 110.294 44.132C110.005 43.796 109.781 43.3947 109.622 42.928C109.463 42.452 109.384 41.92 109.384 41.332C109.384 40.744 109.463 40.2167 109.622 39.75C109.781 39.2833 110.005 38.8867 110.294 38.56C110.593 38.224 110.947 37.9673 111.358 37.79C111.778 37.6127 112.249 37.524 112.772 37.524C113.295 37.524 113.766 37.6127 114.186 37.79C114.606 37.9673 114.961 38.224 115.25 38.56C115.549 38.8867 115.777 39.2833 115.936 39.75C116.095 40.2167 116.174 40.744 116.174 41.332C116.174 41.92 116.095 42.452 115.936 42.928C115.777 43.3947 115.549 43.796 115.25 44.132C114.961 44.468 114.606 44.7247 114.186 44.902C113.766 45.0793 113.295 45.168 112.772 45.168ZM112.772 43.726C113.248 43.726 113.621 43.5813 113.892 43.292C114.163 43.0027 114.298 42.578 114.298 42.018V40.66C114.298 40.1093 114.163 39.6893 113.892 39.4C113.621 39.1107 113.248 38.966 112.772 38.966C112.305 38.966 111.937 39.1107 111.666 39.4C111.395 39.6893 111.26 40.1093 111.26 40.66V42.018C111.26 42.578 111.395 43.0027 111.666 43.292C111.937 43.5813 112.305 43.726 112.772 43.726ZM112.968 36.866L111.89 36.348L113.22 33.73L114.732 34.472L112.968 36.866ZM117.763 45V37.692H119.555V38.91H119.625C119.774 38.518 120.007 38.1913 120.325 37.93C120.651 37.6593 121.099 37.524 121.669 37.524C122.425 37.524 123.003 37.7713 123.405 38.266C123.806 38.7607 124.007 39.4653 124.007 40.38V45H122.215V40.562C122.215 40.0393 122.121 39.6473 121.935 39.386C121.748 39.1247 121.44 38.994 121.011 38.994C120.824 38.994 120.642 39.022 120.465 39.078C120.297 39.1247 120.143 39.1993 120.003 39.302C119.872 39.3953 119.765 39.5167 119.681 39.666C119.597 39.806 119.555 39.974 119.555 40.17V45H117.763ZM130.361 43.782H130.291C130.226 43.9687 130.137 44.146 130.025 44.314C129.922 44.4727 129.787 44.6173 129.619 44.748C129.46 44.8787 129.264 44.9813 129.031 45.056C128.807 45.1307 128.546 45.168 128.247 45.168C127.491 45.168 126.912 44.9207 126.511 44.426C126.11 43.9313 125.909 43.2267 125.909 42.312V37.692H127.701V42.13C127.701 42.634 127.799 43.0213 127.995 43.292C128.191 43.5533 128.504 43.684 128.933 43.684C129.11 43.684 129.283 43.6607 129.451 43.614C129.628 43.5673 129.782 43.4973 129.913 43.404C130.044 43.3013 130.151 43.18 130.235 43.04C130.319 42.8907 130.361 42.718 130.361 42.522V37.692H132.153V45H130.361V43.782ZM136.618 45.168C135.918 45.168 135.33 45.0513 134.854 44.818C134.378 44.5753 133.958 44.244 133.594 43.824L134.686 42.76C134.956 43.068 135.25 43.3107 135.568 43.488C135.894 43.6653 136.268 43.754 136.688 43.754C137.117 43.754 137.425 43.6793 137.612 43.53C137.808 43.3807 137.906 43.1753 137.906 42.914C137.906 42.6993 137.836 42.5313 137.696 42.41C137.565 42.2793 137.336 42.1907 137.01 42.144L136.282 42.046C135.488 41.9433 134.882 41.7193 134.462 41.374C134.051 41.0193 133.846 40.506 133.846 39.834C133.846 39.4793 133.911 39.162 134.042 38.882C134.172 38.5927 134.359 38.35 134.602 38.154C134.844 37.9487 135.134 37.7947 135.47 37.692C135.815 37.58 136.198 37.524 136.618 37.524C136.972 37.524 137.285 37.552 137.556 37.608C137.836 37.6547 138.088 37.7293 138.312 37.832C138.536 37.9253 138.741 38.0467 138.928 38.196C139.114 38.336 139.296 38.4947 139.474 38.672L138.424 39.722C138.209 39.498 137.952 39.3113 137.654 39.162C137.355 39.0127 137.028 38.938 136.674 38.938C136.282 38.938 135.997 39.008 135.82 39.148C135.652 39.288 135.568 39.47 135.568 39.694C135.568 39.9367 135.638 40.1233 135.778 40.254C135.927 40.3753 136.174 40.464 136.52 40.52L137.262 40.618C138.839 40.842 139.628 41.5607 139.628 42.774C139.628 43.1287 139.553 43.4553 139.404 43.754C139.264 44.0433 139.063 44.2953 138.802 44.51C138.54 44.7153 138.223 44.8787 137.85 45C137.486 45.112 137.075 45.168 136.618 45.168ZM143.382 45C142.766 45 142.295 44.8413 141.968 44.524C141.651 44.1973 141.492 43.7353 141.492 43.138V39.12H140.414V37.692H140.974C141.245 37.692 141.427 37.6313 141.52 37.51C141.623 37.3793 141.674 37.188 141.674 36.936V35.69H143.284V37.692H144.782V39.12H143.284V43.572H144.67V45H143.382ZM150.705 43.782H150.635C150.569 43.9687 150.481 44.146 150.369 44.314C150.266 44.4727 150.131 44.6173 149.963 44.748C149.804 44.8787 149.608 44.9813 149.375 45.056C149.151 45.1307 148.889 45.168 148.591 45.168C147.835 45.168 147.256 44.9207 146.855 44.426C146.453 43.9313 146.253 43.2267 146.253 42.312V37.692H148.045V42.13C148.045 42.634 148.143 43.0213 148.339 43.292C148.535 43.5533 148.847 43.684 149.277 43.684C149.454 43.684 149.627 43.6607 149.795 43.614C149.972 43.5673 150.126 43.4973 150.257 43.404C150.387 43.3013 150.495 43.18 150.579 43.04C150.663 42.8907 150.705 42.718 150.705 42.522V37.692H152.497V45H150.705V43.782ZM159.943 45C159.551 45 159.239 44.888 159.005 44.664C158.781 44.4307 158.641 44.1227 158.585 43.74H158.501C158.38 44.216 158.133 44.5753 157.759 44.818C157.386 45.0513 156.924 45.168 156.373 45.168C155.627 45.168 155.053 44.972 154.651 44.58C154.25 44.188 154.049 43.6653 154.049 43.012C154.049 42.256 154.32 41.696 154.861 41.332C155.403 40.9587 156.173 40.772 157.171 40.772H158.417V40.24C158.417 39.8293 158.31 39.512 158.095 39.288C157.881 39.064 157.535 38.952 157.059 38.952C156.639 38.952 156.299 39.0453 156.037 39.232C155.785 39.4093 155.571 39.624 155.393 39.876L154.329 38.924C154.6 38.504 154.959 38.168 155.407 37.916C155.855 37.6547 156.448 37.524 157.185 37.524C158.175 37.524 158.926 37.748 159.439 38.196C159.953 38.644 160.209 39.288 160.209 40.128V43.572H160.937V45H159.943ZM156.975 43.866C157.377 43.866 157.717 43.7773 157.997 43.6C158.277 43.4227 158.417 43.1613 158.417 42.816V41.85H157.269C156.336 41.85 155.869 42.1487 155.869 42.746V42.984C155.869 43.2827 155.963 43.5067 156.149 43.656C156.345 43.796 156.621 43.866 156.975 43.866ZM167.806 35.214L166.77 35.886C167.414 36.558 167.932 37.3327 168.324 38.21C168.716 39.0873 168.912 40.0627 168.912 41.136C168.912 41.8267 168.828 42.4287 168.66 42.942C168.492 43.446 168.254 43.866 167.946 44.202C167.647 44.5287 167.288 44.7713 166.868 44.93C166.448 45.0887 165.981 45.168 165.468 45.168C164.917 45.168 164.422 45.084 163.984 44.916C163.554 44.7387 163.186 44.4913 162.878 44.174C162.579 43.8567 162.35 43.4693 162.192 43.012C162.033 42.5547 161.954 42.046 161.954 41.486C161.954 40.9633 162.019 40.4873 162.15 40.058C162.29 39.6287 162.486 39.26 162.738 38.952C162.99 38.644 163.293 38.406 163.648 38.238C164.012 38.07 164.413 37.986 164.852 37.986C165.356 37.986 165.776 38.112 166.112 38.364C166.457 38.6067 166.728 38.938 166.924 39.358L167.008 39.316C166.896 38.84 166.695 38.3873 166.406 37.958C166.126 37.5287 165.785 37.118 165.384 36.726L164.18 37.482L163.536 36.712L164.628 36.054C164.301 35.7833 163.956 35.5313 163.592 35.298C163.237 35.0647 162.878 34.8453 162.514 34.64H165.244C165.374 34.7147 165.5 34.8033 165.622 34.906C165.743 34.9993 165.869 35.0973 166 35.2L167.176 34.458L167.806 35.214ZM165.44 43.796C165.934 43.796 166.326 43.6373 166.616 43.32C166.905 43.0027 167.05 42.5593 167.05 41.99V41.178C167.05 40.6087 166.905 40.1653 166.616 39.848C166.326 39.5307 165.934 39.372 165.44 39.372C164.936 39.372 164.539 39.5307 164.25 39.848C163.96 40.1653 163.816 40.6087 163.816 41.178V41.99C163.816 42.5593 163.96 43.0027 164.25 43.32C164.539 43.6373 164.936 43.796 165.44 43.796ZM171.528 36.628C171.154 36.628 170.884 36.544 170.716 36.376C170.557 36.208 170.478 35.9933 170.478 35.732V35.452C170.478 35.1907 170.557 34.976 170.716 34.808C170.884 34.64 171.154 34.556 171.528 34.556C171.892 34.556 172.158 34.64 172.326 34.808C172.494 34.976 172.578 35.1907 172.578 35.452V35.732C172.578 35.9933 172.494 36.208 172.326 36.376C172.158 36.544 171.892 36.628 171.528 36.628ZM170.632 37.692H172.424V45H170.632V37.692ZM176.293 45C175.677 45 175.224 44.846 174.935 44.538C174.646 44.23 174.501 43.796 174.501 43.236V34.64H176.293V43.572H177.259V45H176.293ZM179.512 36.628C179.139 36.628 178.868 36.544 178.7 36.376C178.541 36.208 178.462 35.9933 178.462 35.732V35.452C178.462 35.1907 178.541 34.976 178.7 34.808C178.868 34.64 179.139 34.556 179.512 34.556C179.876 34.556 180.142 34.64 180.31 34.808C180.478 34.976 180.562 35.1907 180.562 35.452V35.732C180.562 35.9933 180.478 36.208 180.31 36.376C180.142 36.544 179.876 36.628 179.512 36.628ZM178.616 37.692H180.408V45H178.616V37.692Z" fill="#421C63"/>
<path d="M103.176 75.288C101.736 75.288 100.512 75.032 99.504 74.52C98.512 74.008 97.656 73.336 96.936 72.504L99.072 70.44C99.648 71.112 100.288 71.624 100.992 71.976C101.712 72.328 102.504 72.504 103.368 72.504C104.344 72.504 105.08 72.296 105.576 71.88C106.072 71.448 106.32 70.872 106.32 70.152C106.32 69.592 106.16 69.136 105.84 68.784C105.52 68.432 104.92 68.176 104.04 68.016L102.456 67.776C99.112 67.248 97.44 65.624 97.44 62.904C97.44 62.152 97.576 61.472 97.848 60.864C98.136 60.256 98.544 59.736 99.072 59.304C99.6 58.872 100.232 58.544 100.968 58.32C101.72 58.08 102.568 57.96 103.512 57.96C104.776 57.96 105.88 58.168 106.824 58.584C107.768 59 108.576 59.616 109.248 60.432L107.088 62.472C106.672 61.96 106.168 61.544 105.576 61.224C104.984 60.904 104.24 60.744 103.344 60.744C102.432 60.744 101.744 60.92 101.28 61.272C100.832 61.608 100.608 62.088 100.608 62.712C100.608 63.352 100.792 63.824 101.16 64.128C101.528 64.432 102.12 64.656 102.936 64.8L104.496 65.088C106.192 65.392 107.44 65.936 108.24 66.72C109.056 67.488 109.464 68.568 109.464 69.96C109.464 70.76 109.32 71.488 109.032 72.144C108.76 72.784 108.352 73.344 107.808 73.824C107.28 74.288 106.624 74.648 105.84 74.904C105.072 75.16 104.184 75.288 103.176 75.288ZM112.448 57.24H115.52V67.944H115.64L117.296 65.688L120.104 62.472H123.584L119.264 67.32L124.04 75H120.392L117.176 69.384L115.52 71.184V75H112.448V57.24ZM135.117 75C134.445 75 133.909 74.808 133.509 74.424C133.125 74.024 132.885 73.496 132.789 72.84H132.645C132.437 73.656 132.013 74.272 131.373 74.688C130.733 75.088 129.941 75.288 128.997 75.288C127.717 75.288 126.733 74.952 126.045 74.28C125.357 73.608 125.013 72.712 125.013 71.592C125.013 70.296 125.477 69.336 126.405 68.712C127.333 68.072 128.653 67.752 130.365 67.752H132.501V66.84C132.501 66.136 132.317 65.592 131.949 65.208C131.581 64.824 130.989 64.632 130.173 64.632C129.453 64.632 128.869 64.792 128.421 65.112C127.989 65.416 127.621 65.784 127.317 66.216L125.493 64.584C125.957 63.864 126.573 63.288 127.341 62.856C128.109 62.408 129.125 62.184 130.389 62.184C132.085 62.184 133.373 62.568 134.253 63.336C135.133 64.104 135.573 65.208 135.573 66.648V72.552H136.821V75H135.117ZM130.029 73.056C130.717 73.056 131.301 72.904 131.781 72.6C132.261 72.296 132.501 71.848 132.501 71.256V69.6H130.533C128.933 69.6 128.133 70.112 128.133 71.136V71.544C128.133 72.056 128.293 72.44 128.613 72.696C128.949 72.936 129.421 73.056 130.029 73.056ZM143.126 75C142.07 75 141.262 74.728 140.702 74.184C140.158 73.624 139.886 72.832 139.886 71.808V64.92H138.038V62.472H138.998C139.462 62.472 139.774 62.368 139.934 62.16C140.11 61.936 140.198 61.608 140.198 61.176V59.04H142.958V62.472H145.526V64.92H142.958V72.552H145.334V75H143.126ZM151.961 75C150.905 75 150.097 74.728 149.537 74.184C148.993 73.624 148.721 72.832 148.721 71.808V64.92H146.873V62.472H147.833C148.297 62.472 148.609 62.368 148.769 62.16C148.945 61.936 149.033 61.608 149.033 61.176V59.04H151.793V62.472H154.361V64.92H151.793V72.552H154.169V75H151.961ZM164.514 72.912H164.394C164.282 73.232 164.13 73.536 163.938 73.824C163.762 74.096 163.53 74.344 163.242 74.568C162.97 74.792 162.634 74.968 162.234 75.096C161.85 75.224 161.402 75.288 160.89 75.288C159.594 75.288 158.602 74.864 157.914 74.016C157.226 73.168 156.882 71.96 156.882 70.392V62.472H159.954V70.08C159.954 70.944 160.122 71.608 160.458 72.072C160.794 72.52 161.33 72.744 162.066 72.744C162.37 72.744 162.666 72.704 162.954 72.624C163.258 72.544 163.522 72.424 163.746 72.264C163.97 72.088 164.154 71.88 164.298 71.64C164.442 71.384 164.514 71.088 164.514 70.752V62.472H167.586V75H164.514V72.912ZM171.135 75V62.472H174.207V65.064H174.327C174.407 64.728 174.527 64.408 174.687 64.104C174.863 63.784 175.087 63.504 175.359 63.264C175.631 63.024 175.951 62.832 176.319 62.688C176.703 62.544 177.143 62.472 177.639 62.472H178.311V65.376H177.351C176.311 65.376 175.527 65.528 174.999 65.832C174.471 66.136 174.207 66.632 174.207 67.32V75H171.135ZM182.093 60.648C181.453 60.648 180.989 60.504 180.701 60.216C180.429 59.928 180.293 59.56 180.293 59.112V58.632C180.293 58.184 180.429 57.816 180.701 57.528C180.989 57.24 181.453 57.096 182.093 57.096C182.717 57.096 183.173 57.24 183.461 57.528C183.749 57.816 183.893 58.184 183.893 58.632V59.112C183.893 59.56 183.749 59.928 183.461 60.216C183.173 60.504 182.717 60.648 182.093 60.648ZM180.557 62.472H183.629V75H180.557V62.472ZM187.19 75V62.472H190.262V64.56H190.382C190.638 63.888 191.038 63.328 191.582 62.88C192.142 62.416 192.91 62.184 193.886 62.184C195.182 62.184 196.174 62.608 196.862 63.456C197.55 64.304 197.894 65.512 197.894 67.08V75H194.822V67.392C194.822 66.496 194.662 65.824 194.342 65.376C194.022 64.928 193.494 64.704 192.758 64.704C192.438 64.704 192.126 64.752 191.822 64.848C191.534 64.928 191.27 65.056 191.03 65.232C190.806 65.392 190.622 65.6 190.478 65.856C190.334 66.096 190.262 66.384 190.262 66.72V75H187.19ZM201.299 75V62.472H204.371V64.56H204.491C204.747 63.888 205.147 63.328 205.691 62.88C206.251 62.416 207.019 62.184 207.995 62.184C209.291 62.184 210.283 62.608 210.971 63.456C211.659 64.304 212.003 65.512 212.003 67.08V75H208.931V67.392C208.931 66.496 208.771 65.824 208.451 65.376C208.131 64.928 207.603 64.704 206.867 64.704C206.547 64.704 206.235 64.752 205.931 64.848C205.643 64.928 205.379 65.056 205.139 65.232C204.915 65.392 204.731 65.6 204.587 65.856C204.443 66.096 204.371 66.384 204.371 66.72V75H201.299Z" fill="#421C63"/>
<defs>
<clipPath id="clip0_965_462">
<rect width="80" height="80" fill="white" transform="translate(8 16)"/>
</clipPath>
</defs>
</svg>
